,
.   http://www.scenetime.com/signup.php  ---&gt;  Hottest scene tracker on the net !!!  

    Join Now   http://www.scenetime.com/signup.php

    seed back for speed


 



...................................NFO:.................................................








































          
          
              
              
                    
                    
                    
                    

Mimic.1997.The.Directors.Cut.BRRiP.XviD.AC3-SiC

Poster:
[img]http://img155.imageshack.us/img155/3221/03139814241680zmimircfu.jpg[/img]

IMDB Link:
http://www.imdb.com/title/tt0119675/

Description:
Three years ago entomologist Dr. Susan Tyler genetically created an insect to kill cockroaches carrying a virulent disease, now the insects are out to destroy their only predator, mankind!  

MediaInfo:
General
Complete name                    : Mimic.1997.The.Directors.Cut.BRRiP.XviD.AC3-SiC.avi
Format                           : AVI
Format/Info                      : Audio Video Interleave
File size                        : 1.61 GiB
Duration                         : 1h 51mn
Overall bit rate                 : 2 062 Kbps

Video
ID                               : 0
Format                           : MPEG-4 Visual
Format profile                   : Advanced Simple@L5
Format settings, BVOP            : 1
Format settings, QPel            : No
Format settings, GMC             : No warppoints
Format settings, Matrix          : Default (H.263)
Codec ID                         : XVID
Codec ID/Hint                    : XviD
Duration                         : 1h 51mn
Bit rate                         : 1 607 Kbps
Width                            : 720 pixels
Height                           : 384 pixels
Display aspect ratio             : 1.875
Frame rate                       : 23.976 fps
Color space                      : YUV
Chroma subsampling               : 4:2:0
Bit depth                        : 8 bits
Scan type                        : Progressive
Compression mode                 : Lossy
Bits/(Pixel*Frame)               : 0.242
Stream size                      : 1.25 GiB (78%)
Writing library                  : XviD 1.2.1 (UTC 2008-12-04)

Audio
ID                               : 1
Format                           : AC-3
Format/Info                      : Audio Coding 3
Mode extension                   : CM (complete main)
Codec ID                         : 2000
Duration                         : 1h 51mn
Bit rate mode                    : Constant
Bit rate                         : 448 Kbps
Channel(s)                       : 6 channels
Channel positions                : Front: L C R, Side: L R, LFE
Sampling rate                    : 48.0 KHz
Bit depth                        : 16 bits
Compression mode                 : Lossy
Stream size                      : 358 MiB (22%)
Alignment                        : Aligned on interleaves
Interleave, duration             : 64 ms (1.53 video frames)
Interleave, preload duration     : 192 ms
Title                            : mimic

Screenshots:
[img]http://img32.imageshack.us/img32/9239/vlcsnap2011102113h41m51.png[/img]
[img]http://img13.imageshack.us/img13/7863/vlcsnap2011102113h41m40.png[/img]
[img]http://img263.imageshack.us/img263/7686/vlcsnap2011102113h41m32.png[/img]
[img]http://img220.imageshack.us/img220/9052/vlcsnap2011102113h41m22.png[/img]
[img]http://img84.imageshack.us/img84/8145/vlcsnap2011102113h40m58.png[/img]

Note : This is the Director's Cut of this film that's just now been released. From what I hear, it's different enough to warrant a re-watch. 

Source: BD50 - REMUX-FraMeSToR Thanks!

Enjoy!

Respects to CaptainHomey, Cyanide, CM8, Rx, THC, ELEKTRI4KA, 
Killerhz, PA, YeFsTe, BoxSlots, MrRep and everyone in the struggle...